<svg width="254" height="40" viewBox="0 0 254 40" fill="none" xmlns="http://www.w3.org/2000/svg">
<path fill-rule="evenodd" clip-rule="evenodd" d="M0 9H120V31H0V9Z" fill="white"/>
<path d="M40.762 17.807H41.5583C41.9846 17.7852 42.4111 17.8452 42.8147 17.984C43.0143 18.0713 43.1858 18.2122 43.3102 18.391C43.4565 18.6146 43.5623 18.8622 43.6228 19.1224C43.6953 19.4337 43.731 19.7525 43.729 20.0721C43.7434 20.5395 43.6631 21.005 43.4931 21.4405C43.3646 21.7739 43.1277 22.0543 42.8206 22.2368C42.4188 22.4233 41.9768 22.5064 41.5347 22.4787H40.762V17.807Z" fill="#18457D"/>
<path d="M76.9024 21.1279C76.5394 20.94 76.1294 20.8621 75.7227 20.9038L74.4722 20.892V22.6615H75.7227C76.1311 22.7137 76.5454 22.6308 76.9024 22.4256C76.9959 22.3453 77.0709 22.2458 77.1224 22.1338C77.1738 22.0218 77.2004 21.9 77.2004 21.7768C77.2004 21.6535 77.1738 21.5317 77.1224 21.4197C77.0709 21.3078 76.9959 21.2082 76.9024 21.1279Z" fill="#18457D"/>
<path d="M76.2949 17.6478C76.015 17.5953 75.7299 17.5755 75.4455 17.5888H74.4427V19.2286H75.6224C75.9701 19.2615 76.3192 19.183 76.6193 19.0044C76.7072 18.934 76.7775 18.8439 76.8246 18.7416C76.8717 18.6392 76.8943 18.5272 76.8906 18.4146C76.894 18.239 76.8355 18.0678 76.7254 17.9309C76.6152 17.7936 76.4646 17.6946 76.2949 17.6478Z" fill="#18457D"/>
<path d="M86.8178 21.6647H84.8713L85.8092 18.273L86.8178 21.6647Z" fill="#18457D"/>
<path fill-rule="evenodd" clip-rule="evenodd" d="M21 10H119V30H21V10ZM65.6362 19.0516H65.634C65.6005 18.6192 65.5038 18.1939 65.3472 17.7893C65.1444 17.2899 64.8458 16.8351 64.4683 16.4504C64.0588 16.0466 63.5595 15.7454 63.0113 15.5715C62.3989 15.368 61.7573 15.2664 61.112 15.2707C60.3861 15.2582 59.6654 15.3947 58.9944 15.6718C58.4779 15.8968 58.0109 16.2215 57.6201 16.6273C57.1915 17.0781 56.8602 17.6121 56.6468 18.1963C56.4093 18.8441 56.2914 19.5296 56.2988 20.2195C56.2844 21.0212 56.4518 21.8158 56.7884 22.5436C57.0244 23.0659 57.3665 23.5333 57.793 23.9162C58.2195 24.299 58.7211 24.5889 59.2658 24.7673C59.8989 24.9782 60.5627 25.0819 61.23 25.074C61.8732 25.0887 62.5134 24.9826 63.1175 24.7614C63.6407 24.5449 64.1128 24.2214 64.5037 23.8118C64.8589 23.4784 65.1437 23.0773 65.3413 22.632C65.5276 22.1656 65.6467 21.675 65.6952 21.1751H62.7459C62.7249 21.6069 62.5465 22.016 62.2445 22.3253C62.093 22.4612 61.9157 22.5651 61.7232 22.631C61.5306 22.6969 61.3268 22.7233 61.1238 22.7087C60.7838 22.7222 60.4467 22.6405 60.1505 22.4728C59.8847 22.2813 59.6798 22.0171 59.5607 21.7119C59.3942 21.2388 59.3201 20.7382 59.3424 20.2372C59.2815 19.5206 59.4621 18.8042 59.8556 18.2022C60.0119 18.0022 60.2127 17.8415 60.4421 17.733C60.6716 17.6244 60.9232 17.571 61.1769 17.577C61.5694 17.5593 61.953 17.697 62.2445 17.9604C62.5402 18.2507 62.7205 18.6385 62.7518 19.0516H65.634L65.6362 19.0811V19.0516ZM41.9417 24.7968C42.549 24.8108 43.1555 24.7474 43.7467 24.6081C44.1633 24.5052 44.5613 24.338 44.9264 24.1126C45.253 23.8859 45.54 23.6069 45.7758 23.2868C46.0668 22.8747 46.2898 22.4187 46.4364 21.936C46.6249 21.3331 46.7146 20.7036 46.7019 20.0721C46.7287 19.1653 46.5258 18.2664 46.112 17.459C45.7504 16.7845 45.173 16.2508 44.4722 15.9431C43.6871 15.6208 42.8432 15.4661 41.9948 15.4889H37.7656V24.7968H41.9417ZM26.9182 24.7968V15.4889H29.9795V18.6328H32.8462V15.4889H35.9135V24.7968H32.8462V21.1869H29.9795V24.7968H26.9182ZM48.1293 15.4889V24.7968H51.1494V21.5113H54.5411V19.2758H51.1494V17.7893H55.3904V15.4889H48.1293ZM77.7459 24.6965C77.239 24.778 76.7255 24.8116 76.2123 24.7968H71.4816V15.4889H76.0943C76.9709 15.4315 77.8474 15.6043 78.6366 15.9903C78.9706 16.1777 79.2464 16.4536 79.4337 16.7877C79.621 17.1217 79.7126 17.501 79.6983 17.8837C79.6945 18.2873 79.5832 18.6826 79.3758 19.0289C79.1685 19.3751 78.8726 19.6599 78.5186 19.8538C78.9732 19.9714 79.3745 20.2397 79.657 20.6147C79.9454 21.0225 80.0925 21.5135 80.0758 22.0127C80.0806 22.3836 80.0145 22.7519 79.8812 23.098C79.7624 23.4043 79.577 23.6803 79.3385 23.9061C79.1373 24.0992 78.9063 24.2586 78.6543 24.378C78.3623 24.5127 78.0581 24.6194 77.7459 24.6965ZM83.9393 24.7968L84.2874 23.5758H87.3369L87.6908 24.7968H90.7345L87.4077 15.4889H84.2933L80.9547 24.7968H83.9393ZM92.0204 15.4889V24.7968H94.9637V19.9364L98.1135 24.7968H101.022V15.4889H98.09V20.4732L94.8753 15.4889H92.0204ZM103.062 24.7968V15.4889H106.029V18.5621L108.796 15.4889H112.388L108.979 18.9926L112.742 24.7968H109.079L106.843 21.0925L106.029 21.8947V24.7968H103.062Z" fill="#18457D"/>
<path fill-rule="evenodd" clip-rule="evenodd" d="M11.812 10H21V19.1637H17.221V13.7547H11.812V10ZM9.84781 10H1V19.1637H4.43886V13.7547H9.84781V10ZM1 21.1279V30H9.84781V26.5369H4.43886V21.1279H1ZM11.812 30H21V21.1279H17.221V26.5369H11.812V30Z" fill="#DC1F26"/>
<path d="M13.7821 17.1936H7.88361V23.0921H13.7821V17.1936Z" fill="#18457D"/>
<line x1="136.5" y1="9" x2="136.5" y2="31" stroke="#4B5563"/>
<path d="M158.338 17H153.235V22H158.338V20.2692L159.573 20.5385V21.3462C159.573 22 159.449 22.4231 159.203 22.6538C158.956 22.8846 158.544 23 157.844 23H153.729C153.029 23 152.576 22.8846 152.37 22.6538C152.123 22.4231 152 22 152 21.3462V17.7308C152 17.0769 152.123 16.6538 152.37 16.4231C152.576 16.1923 153.07 16.0769 153.729 16.0769H157.844C158.544 16.0769 158.956 16.1923 159.203 16.4231C159.449 16.6154 159.573 17.0769 159.573 17.7308V18.3846L158.338 18.6154V17Z" fill="white"/>
<path d="M165.129 22.9615V16.0769H166.323V22H171.92V22.9615H165.129Z" fill="white"/>
<path d="M177.97 20.4231H181.921L179.946 16.8846L177.97 20.4231ZM175.254 22.9615L179.287 16.0769H180.604L184.72 22.9615H183.362L182.415 21.2692H177.435L176.53 22.9615H175.254Z" fill="white"/>
<path d="M195.709 17H190.482V18.9231H195.133C195.791 18.9231 196.244 19.0769 196.491 19.2692C196.697 19.5 196.82 19.9231 196.82 20.5385V21.3077C196.82 21.9615 196.697 22.3846 196.491 22.6154C196.244 22.8462 195.791 22.9615 195.133 22.9615H190.811C190.153 22.9615 189.7 22.8462 189.453 22.6154C189.206 22.3846 189.083 21.9615 189.083 21.3077V21.1154L190.235 20.8462V21.9615H195.709V19.9231H191.058C190.4 19.9231 189.947 19.8077 189.741 19.5769C189.494 19.3462 189.371 18.9231 189.371 18.2692V17.6538C189.371 17 189.494 16.5769 189.741 16.3462C189.988 16.1154 190.4 16 191.099 16H195.009C195.627 16 196.121 16.1154 196.326 16.3077C196.573 16.5 196.738 16.9231 196.738 17.5V17.7308L195.668 18V17H195.709Z" fill="white"/>
<path d="M203.941 17V18.9231H208.591C209.291 18.9231 209.703 19.0769 209.949 19.2692C210.196 19.5 210.32 19.9231 210.32 20.5385V21.3077C210.32 21.9615 210.196 22.3846 209.949 22.6154C209.703 22.8462 209.291 22.9615 208.591 22.9615H204.311C203.611 22.9615 203.159 22.8462 202.912 22.6154C202.665 22.3846 202.541 21.9615 202.541 21.3077V21.1154L203.694 20.8462V21.9615H209.167V19.9231H204.558C203.899 19.9231 203.447 19.8077 203.2 19.5769C202.953 19.3462 202.829 18.9231 202.829 18.2692V17.6538C202.829 17 202.953 16.5769 203.2 16.3462C203.447 16.1154 203.899 16 204.558 16H208.509C209.126 16 209.579 16.1154 209.826 16.3077C210.114 16.5 210.196 16.9231 210.196 17.5V17.7308L209.167 18V17H203.941Z" fill="white"/>
<path d="M217.481 16.0769H216.288V22.9615H217.481V16.0769Z" fill="white"/>
<path d="M229.911 17H224.807V22H229.911V20.2692L231.104 20.5385V21.3462C231.104 22 230.981 22.4231 230.734 22.6538C230.487 22.8846 230.034 23 229.376 23H225.26C224.601 23 224.149 22.8846 223.902 22.6538C223.655 22.4231 223.531 22 223.531 21.3462V17.7308C223.531 17.0769 223.655 16.6538 223.902 16.4231C224.149 16.1923 224.56 16.0769 225.26 16.0769H229.376C230.034 16.0769 230.487 16.1923 230.734 16.4231C230.981 16.6154 231.104 17.0769 231.104 17.7308V18.3846L229.911 18.6154V17Z" fill="white"/>
</svg>
