<svg width="24" height="24" viewBox="0 0 24 24" fill="none" xmlns="http://www.w3.org/2000/svg">
<path fill-rule="evenodd" clip-rule="evenodd" d="M5.27021 8.91C5.27021 5.18579 8.29599 2.16 12.0202 2.16C15.7344 2.16 18.7702 5.19579 18.7702 8.91V11.8C18.7702 12.0149 18.8188 12.3294 18.911 12.6654C19.002 12.9974 19.1196 13.2924 19.2267 13.4797L20.3733 15.3841C21.2789 16.8934 20.555 18.8595 18.8867 19.4117C14.4228 20.9029 9.60642 20.9028 5.14254 19.4114L5.13976 19.4104C4.29735 19.1253 3.66559 18.5358 3.38312 17.7729C3.10033 17.0092 3.19653 16.1496 3.65757 15.3833L4.806 13.476L4.80676 13.4747C4.91626 13.2906 5.03621 12.9966 5.12878 12.6631C5.22163 12.3287 5.27021 12.0146 5.27021 11.8V8.91ZM12.0202 3.66C9.12442 3.66 6.77021 6.01422 6.77021 8.91V11.8C6.77021 12.1954 6.68878 12.6513 6.57413 13.0644C6.45941 13.4776 6.29471 13.9081 6.09442 14.2441L6.09274 14.2469L4.94284 16.1567C4.69399 16.5704 4.6801 16.9558 4.78979 17.2521C4.89971 17.5489 5.16255 17.8342 5.61932 17.9891C9.77466 19.3771 14.2573 19.377 18.4125 17.9887L18.4148 17.9879C19.1656 17.7397 19.5012 16.8468 19.0874 16.1564L17.9305 14.2349C17.7384 13.9019 17.5775 13.4744 17.4644 13.0621C17.3516 12.6507 17.2702 12.1951 17.2702 11.8V8.91C17.2702 6.02422 14.906 3.66 12.0202 3.66Z" fill="#E5E7EB"/>
<path fill-rule="evenodd" clip-rule="evenodd" d="M9.47191 2.92635C9.87136 1.90707 10.8631 1.19 12.0202 1.19C13.1774 1.19 14.1691 1.90707 14.5685 2.92635C14.6728 3.19242 14.6168 3.49463 14.4241 3.70568C14.2314 3.91673 13.9355 3.99994 13.6611 3.92026C13.3837 3.83972 13.1037 3.77895 12.82 3.74455L12.8172 3.74421C11.9528 3.63616 11.136 3.70029 10.3796 3.92019C10.1051 3.99997 9.80915 3.91683 9.61641 3.70577C9.42366 3.49472 9.36762 3.19246 9.47191 2.92635Z" fill="#E5E7EB"/>
<path fill-rule="evenodd" clip-rule="evenodd" d="M9.77021 19.06C9.77021 19.6725 10.025 20.2441 10.4305 20.6497C10.8361 21.0552 11.4077 21.31 12.0202 21.31C13.256 21.31 14.2702 20.2958 14.2702 19.06H15.7702C15.7702 21.1242 14.0844 22.81 12.0202 22.81C10.9927 22.81 10.0444 22.3848 9.36988 21.7103C8.6954 21.0359 8.27021 20.0875 8.27021 19.06H9.77021Z" fill="#E5E7EB"/>
</svg>
