<svg width="24" height="24" viewBox="0 0 24 24" fill="none" xmlns="http://www.w3.org/2000/svg">
<g clip-path="url(#clip0_1_203)">
<path d="M12.75 2.75C12.75 2.33579 12.4142 2 12 2C11.5858 2 11.25 2.33579 11.25 2.75V9.95C11.25 10.3642 11.5858 10.7 12 10.7C12.4142 10.7 12.75 10.3642 12.75 9.95V2.75Z" fill="#E5E7EB"/>
<path d="M2.84998 12.35C2.84998 8.57477 5.13636 5.33352 8.39997 3.93543V5.59832C5.98988 6.88607 4.34998 9.42654 4.34998 12.35C4.34998 16.575 7.775 20 12 20C16.225 20 19.65 16.575 19.65 12.35C19.65 9.42653 18.0101 6.88606 15.6 5.59831V3.93542C18.8636 5.33351 21.15 8.57476 21.15 12.35C21.15 17.4034 17.0534 21.5 12 21.5C6.94657 21.5 2.84998 17.4034 2.84998 12.35Z" fill="#E5E7EB"/>
</g>
<defs>
<clipPath id="clip0_1_203">
<rect width="24" height="24" fill="white"/>
</clipPath>
</defs>
</svg>
