<svg width="20" height="20" viewBox="0 0 20 20" fill="none" xmlns="http://www.w3.org/2000/svg">
<g clip-path="url(#clip0_88_60)">
<path d="M14.1667 1.41667H5.83333C3 1.41667 1 3.33334 1 6.16667V11.1667C1 13.8333 2.66667 15.6667 5.16667 15.9167V17.0833C5.16667 17.5833 5.5 18.0833 5.91667 18.3333C6.16667 18.4167 6.33333 18.5 6.58333 18.5C6.83333 18.5 7.16667 18.4167 7.41667 18.25L11 15.9167H14.1667C17 15.9167 19 14 19 11.0833V6.08334C19 3.33334 17 1.41667 14.1667 1.41667ZM17.6667 11.1667C17.6667 13.3333 16.25 14.6667 14.1667 14.6667H10.8333C10.75 14.6667 10.5833 14.6667 10.5 14.75L6.75 17.25C6.66667 17.3333 6.58333 17.25 6.5 17.25C6.5 17.25 6.41667 17.1667 6.41667 17.0833V15.3333C6.41667 15 6.16667 14.6667 5.75 14.6667C3.58333 14.6667 2.25 13.25 2.25 11.1667V6.16667C2.25 4.00001 3.66667 2.66667 5.75 2.66667H14.0833C16.25 2.66667 17.5833 4.08334 17.5833 6.16667L17.6667 11.1261V11.1667Z" fill="#E5E7EB"/>
<path d="M10 5.08334C8.91667 5.08334 8 6 8 7.08334C8 7.41667 8.25 7.75 8.66667 7.75C9.08333 7.75 9.33333 7.5 9.33333 7.08334C9.33333 6.66667 9.66667 6.33334 10.0833 6.33334C10.5 6.33334 10.8333 6.66667 10.8333 7.08334C10.8333 7.33334 10.75 7.41667 10.4167 7.66667C10.1667 7.83334 9.41667 8.33334 9.41667 9.25001V9.41667C9.41667 9.75001 9.66667 10.0833 10.0833 10.0833C10.5 10.0833 10.75 9.83334 10.75 9.41667V9.25001C10.75 9.00001 10.8333 8.91667 11.1667 8.66667C11.4167 8.5 12.0833 8 12.0833 7.08334C12 6 11.0833 5.08334 10 5.08334Z" fill="#E5E7EB"/>
<path d="M10 10.8333C9.66667 10.8333 9.33333 11.0833 9.33333 11.5C9.33333 11.9167 9.58333 12.1667 10 12.1667C10.4167 12.1667 10.6667 11.9167 10.6667 11.5C10.6667 11.0833 10.3333 10.8333 10 10.8333Z" fill="#E5E7EB"/>
</g>
<defs>
<clipPath id="clip0_88_60">
<rect width="20" height="20" fill="white"/>
</clipPath>
</defs>
</svg>
