<svg width="20" height="20" viewBox="0 0 20 20" fill="none" xmlns="http://www.w3.org/2000/svg">
<g clip-path="url(#clip0_1_206)">
<path d="M1.875 5.83333C1.875 5.48815 2.15482 5.20833 2.5 5.20833H17.5C17.8452 5.20833 18.125 5.48815 18.125 5.83333C18.125 6.17851 17.8452 6.45833 17.5 6.45833H2.5C2.15482 6.45833 1.875 6.17851 1.875 5.83333Z" fill="#E5E7EB"/>
<path d="M1.875 10C1.875 9.65482 2.15482 9.375 2.5 9.375H17.5C17.8452 9.375 18.125 9.65482 18.125 10C18.125 10.3452 17.8452 10.625 17.5 10.625H2.5C2.15482 10.625 1.875 10.3452 1.875 10Z" fill="#E5E7EB"/>
<path d="M2.5 13.5417C2.15482 13.5417 1.875 13.8215 1.875 14.1667C1.875 14.5118 2.15482 14.7917 2.5 14.7917H17.5C17.8452 14.7917 18.125 14.5118 18.125 14.1667C18.125 13.8215 17.8452 13.5417 17.5 13.5417H2.5Z" fill="#E5E7EB"/>
</g>
<defs>
<clipPath id="clip0_1_206">
<rect width="20" height="20" fill="white"/>
</clipPath>
</defs>
</svg>
